<?xml version="1.0" encoding="UTF-8"?><svg id="Layer_1" xmlns="http://www.w3.org/2000/svg" viewBox="0 0 1280 640"><defs><style>.cls-1{font-family:JetBrainsMono-Bold, 'JetBrains Mono';font-size:108px;}.cls-1,.cls-2,.cls-3{fill:#f2eee8;}.cls-4{opacity:.1;}.cls-3{font-family:JetBrainsMono-Regular, 'JetBrains Mono';font-size:36px;opacity:.2;}.cls-5{fill:#0d1117;stroke:#1d1d1b;stroke-miterlimit:10;}</style></defs><rect class="cls-5" width="1280" height="640"/><text class="cls-1" transform="translate(100 299.7)"><tspan x="0" y="0">Desperate </tspan><tspan x="0" y="120">Defenders</tspan></text><text class="cls-3" transform="translate(859.45 132.67) rotate(-10)"><tspan x="0" y="0">+-----+-----+-----+-----+</tspan><tspan x="0" y="48" xml:space="preserve">|ARCHR|     |     |</tspan><tspan x="0" y="96" xml:space="preserve">| 5/5 |     |     |</tspan><tspan x="0" y="144">+-----+-----+-----+-----+</tspan><tspan x="0" y="192" xml:space="preserve">|     |WALL |ZOMBI|</tspan><tspan x="0" y="240" xml:space="preserve">|     |20/20|15/15|</tspan><tspan x="0" y="288">+-----+-----+-----+-----+</tspan><tspan x="0" y="336" xml:space="preserve">|     |     |     |</tspan><tspan x="0" y="384" xml:space="preserve">|     |     |     |</tspan><tspan x="0" y="432">+-----+-----+-----+</tspan><tspan x="0" y="480" xml:space="preserve">|CANON|     |     |</tspan><tspan x="0" y="528" xml:space="preserve">| 8/8 |     |     |</tspan><tspan x="0" y="576">+-----+-----+-----+</tspan></text><g class="cls-4"><path class="cls-2" d="M318.66,119.05l13.75,3.06,11.15,3.97,9.02,4.58,6.88,4.89,5.2,5.2,3.82,5.2,2.44,5.04,1.53,4.58,.61,3.97,.31,3.06-.15,1.99v81.6l-.76,9.63-1.99,8.4-3.21,7.03-3.97,5.81-4.58,4.74-5.04,3.82-5.35,2.9-5.35,2.14-5.04,1.53-4.58,1.07-3.97,.61-3.21,.31h-91.22l-10.54,.76-9.02,2.14-7.64,3.36-6.27,4.13-5.04,4.89-4.13,5.35-3.06,5.5-2.29,5.65-1.53,5.35-1.07,4.89-.61,4.13-.31,3.21v46.76h-34.08l-3.21-.46-4.28-1.07-4.89-1.83-5.35-2.75-5.5-3.97-5.5-5.5-5.35-7.03-4.89-9.02-4.28-11.15-3.21-13.45-2.14-16.04-.76-18.8,.92-18.64,2.44-15.89,3.67-13.29,4.89-10.85,5.5-8.71,6.11-6.72,6.42-5.04,6.42-3.67,6.11-2.44,5.5-1.53,4.89-.76,3.67-.15h2.44l.92,.15h124.69v-12.68h-89.24l-.15-42.02-.31-5.65,.76-5.2,1.68-4.74,2.6-4.28,3.82-3.97,4.74-3.51,5.81-3.06,6.72-2.75,7.79-2.29,8.86-1.83,9.78-1.53,10.85-.92,11.77-.61,12.84-.31,19.41,.76,16.35,1.99Zm-96.27,30.26l-3.51,5.04-1.22,6.27,1.22,6.27,3.51,5.2,5.04,3.36,6.27,1.38,6.27-1.38,5.04-3.36,3.51-5.2,1.22-6.27-1.22-6.27-3.51-5.04-5.04-3.36-6.27-1.38-6.27,1.38-5.04,3.36Zm200.02,60.36l4.28,.92,4.89,1.83,5.35,2.75,5.5,4.13,5.5,5.35,5.35,7.18,4.89,9.02,4.28,11.15,3.21,13.45,2.14,15.89,.76,18.8-.92,18.8-2.44,15.89-3.67,13.14-4.89,10.85-5.5,8.71-6.11,6.88-6.42,5.04-6.42,3.67-6.11,2.44-5.5,1.38-4.89,.76-3.67,.31-2.44-.15h-125.61v12.53h89.24l.15,42.17,.31,5.5-.76,5.2-1.68,4.74-2.6,4.43-3.82,3.82-4.74,3.67-5.81,3.06-6.72,2.6-7.79,2.29-8.86,1.99-9.78,1.38-10.85,1.07-11.77,.61-12.84,.15-19.41-.61-16.35-2.14-13.75-3.06-11.15-3.82-9.02-4.58-6.88-5.04-5.2-5.2-3.82-5.2-2.44-5.04-1.53-4.58-.61-3.82-.31-3.06,.15-1.99v-81.6l.76-9.78,1.99-8.25,3.21-7.03,3.97-5.81,4.58-4.89,5.04-3.67,5.35-3.06,5.35-2.14,5.04-1.53,4.58-.92,3.97-.61,3.21-.31,1.99-.15h89.24l10.54-.76,9.02-2.14,7.64-3.21,6.27-4.28,5.04-4.89,4.13-5.35,3.06-5.5,2.29-5.5,1.53-5.35,1.07-4.89,.61-4.28,.31-3.21v-46.76h31.94l2.14,.15,3.21,.46Zm-98.86,217.75l-3.51,5.04-1.22,6.27,1.22,6.27,3.51,5.04,5.04,3.51,6.27,1.22,6.27-1.22,5.04-3.51,3.51-5.04,1.22-6.27-1.22-6.27-3.51-5.04-5.04-3.51-6.27-1.22-6.27,1.22-5.04,3.51Z"/></g></svg>